<?xml version="1.0" standalone="no"?>
<!DOCTYPE svg PUBLIC "-//W3C//DTD SVG 20010904//EN"
 "http://www.w3.org/TR/2001/REC-SVG-20010904/DTD/svg10.dtd">
<svg version="1.0" xmlns="http://www.w3.org/2000/svg"
 width="1024.000000pt" height="1024.000000pt" viewBox="0 0 1024.000000 1024.000000"
 preserveAspectRatio="xMidYMid meet">

<g transform="translate(0.000000,1024.000000) scale(0.100000,-0.100000)"
fill="#000000" stroke="none">
<path d="M4910 8993 c-516 -40 -948 -193 -1320 -467 -114 -83 -285 -252 -363
-357 -166 -223 -267 -473 -267 -661 0 -87 29 -144 89 -175 l44 -23 2017 0
2017 0 44 23 c31 16 51 36 67 67 21 40 23 54 18 135 -14 243 -166 553 -385
787 -346 371 -908 614 -1541 668 -108 9 -320 11 -420 3z m610 -267 c654 -101
1163 -422 1390 -875 60 -121 105 -267 89 -288 -10 -11 -343 -13 -1900 -13
l-1889 0 0 29 c0 42 55 194 100 276 153 278 404 505 735 665 248 120 477 182
825 224 86 10 549 -3 650 -18z"/>
<path d="M5095 8465 c-49 -48 -25 -136 59 -213 71 -65 137 -81 176 -42 52 52
-5 186 -108 251 -57 36 -95 37 -127 4z"/>
<path d="M4482 8234 c-151 -75 -175 -277 -30 -250 123 23 226 175 168 249 -28
35 -69 36 -138 1z"/>
<path d="M5648 8159 c-33 -13 -50 -57 -38 -100 29 -100 172 -191 251 -159 84
35 39 169 -77 232 -60 32 -101 40 -136 27z"/>
<path d="M3074 7096 c-103 -45 -97 -195 10 -224 19 -6 865 -7 2047 -4 2134 5
2039 3 2082 50 27 29 33 92 13 130 -35 67 132 62 -2098 62 -1671 -1 -2028 -3
-2054 -14z"/>
<path d="M3410 6651 c-98 -22 -198 -61 -294 -115 -127 -71 -174 -146 -145
-229 18 -53 58 -82 112 -82 34 0 59 10 122 51 112 72 156 92 242 115 132 33
259 22 368 -33 22 -11 102 -61 177 -110 161 -104 216 -131 329 -159 70 -18
103 -21 199 -16 146 6 217 30 373 125 153 92 213 115 293 110 71 -4 92 -17
424 -264 240 -178 272 -195 346 -195 86 0 121 27 306 238 91 103 185 209 209
235 123 131 302 117 543 -40 64 -42 87 -52 122 -52 81 0 136 78 113 163 -17
62 -82 119 -211 181 -246 120 -479 129 -643 25 -27 -17 -122 -102 -210 -189
-88 -86 -171 -164 -185 -173 -27 -19 -76 -22 -112 -8 -13 5 -120 82 -238 170
-251 189 -297 214 -395 219 -128 7 -248 -37 -430 -158 -126 -84 -186 -112
-270 -130 -120 -25 -233 8 -402 117 -285 184 -357 214 -538 219 -92 3 -140 -1
-205 -15z"/>
<path d="M3105 5904 c-101 -37 -152 -136 -142 -274 13 -167 82 -315 202 -435
121 -121 284 -199 468 -224 107 -15 2809 -15 2927 0 128 15 194 35 309 90 87
43 117 63 181 128 64 64 86 95 129 182 111 225 104 428 -18 514 l-43 30 -410
3 -409 3 -87 -69 c-108 -86 -160 -113 -233 -119 -81 -8 -129 12 -258 106
l-111 81 -1232 -1 c-1055 0 -1239 -3 -1273 -15z m3903 -259 c6 -47 -27 -151
-67 -213 -51 -77 -110 -128 -195 -167 -139 -63 -44 -60 -1641 -60 -1386 0
-1463 1 -1525 18 -152 43 -264 130 -323 251 -31 62 -54 163 -44 190 6 15 160
16 1899 14 l1893 -3 3 -30z"/>
<path d="M2100 3895 l0 -745 150 0 150 0 0 487 0 487 149 -255 c316 -540 306
-524 332 -526 21 -3 35 16 124 170 55 94 157 269 227 387 l128 215 0 -482 0
-483 150 0 150 0 0 745 0 745 -168 0 -167 0 -90 -157 c-49 -87 -149 -263 -221
-391 l-132 -232 -168 297 c-92 164 -190 339 -219 388 l-51 90 -172 3 -172 2 0
-745z"/>
<path d="M7031 4598 c-48 -33 -73 -83 -68 -135 5 -48 45 -108 83 -125 13 -6
24 -15 24 -20 0 -4 -21 -40 -47 -79 l-48 -72 34 -28 c34 -28 35 -28 65 -11 17
9 62 49 102 88 87 86 118 155 112 247 -7 97 -61 149 -161 155 -52 3 -67 0 -96
-20z"/>
<path d="M4307 4249 c-158 -18 -282 -80 -344 -173 -31 -45 -42 -75 -58 -153
l-7 -33 136 0 c77 0 136 4 136 9 0 19 54 72 92 92 46 23 144 28 193 9 49 -18
85 -60 101 -118 9 -29 13 -59 11 -66 -4 -10 -35 -14 -124 -15 -147 -2 -279
-17 -358 -42 -162 -50 -246 -169 -233 -333 17 -201 168 -308 416 -293 111 6
189 35 248 91 l44 43 0 -59 0 -58 150 0 150 0 0 343 c0 191 -5 371 -11 407
-15 93 -58 177 -124 239 -68 65 -137 97 -238 110 -85 12 -81 12 -180 0z m258
-681 c-9 -69 -25 -98 -76 -141 -53 -46 -116 -67 -196 -67 -103 0 -153 38 -153
116 0 44 24 85 62 105 37 20 159 37 266 38 l104 1 -7 -52z"/>
<path d="M6325 4249 c-126 -19 -226 -68 -310 -153 -172 -172 -211 -465 -92
-690 64 -120 201 -223 347 -261 83 -22 244 -22 324 0 117 31 227 106 293 197
l32 45 -116 76 -117 75 -32 -40 c-80 -102 -191 -139 -310 -103 -252 75 -256
497 -5 578 110 35 198 13 282 -73 l57 -59 116 76 c64 41 116 78 116 83 0 4
-29 39 -65 77 -125 136 -325 202 -520 172z"/>
<path d="M7535 4246 c-114 -28 -202 -90 -250 -177 -24 -45 -30 -69 -33 -140
-5 -110 17 -168 94 -238 62 -57 120 -79 288 -112 155 -29 196 -53 196 -115 0
-50 -13 -69 -60 -88 -90 -36 -229 -11 -354 65 -57 34 -70 39 -81 28 -31 -32
-145 -174 -145 -180 0 -11 104 -77 163 -104 174 -80 413 -85 570 -13 85 39
158 115 182 189 26 77 17 201 -18 261 -55 95 -137 139 -327 178 -75 15 -151
35 -168 44 -84 43 -83 128 1 167 95 43 233 7 339 -89 l36 -33 20 28 c10 15 43
66 72 112 l53 85 -29 23 c-49 40 -165 91 -246 107 -90 19 -232 19 -303 2z"/>
<path d="M5634 4236 c-72 -17 -135 -57 -188 -118 l-46 -53 0 78 0 77 -150 0
-150 0 0 -535 0 -535 149 0 150 0 3 298 c3 285 4 299 26 343 29 60 86 116 142
143 36 16 64 21 138 21 l92 0 0 141 0 142 -31 6 c-43 8 -75 6 -135 -8z"/>
<path d="M2100 2280 l0 -660 343 0 c437 0 485 10 603 122 76 72 98 128 99 253
0 81 -4 109 -22 146 -29 65 -83 121 -142 148 l-49 24 46 31 c33 22 55 48 77
90 27 53 30 69 30 145 -1 71 -5 96 -27 142 -31 68 -86 131 -142 164 -82 48
-144 55 -493 55 l-323 0 0 -660z m580 419 c169 -36 184 -244 22 -289 -20 -5
-103 -10 -184 -10 l-148 0 0 155 0 155 130 0 c71 0 152 -5 180 -11z m114 -544
c61 -31 81 -65 81 -140 0 -74 -19 -107 -81 -139 -35 -19 -60 -21 -231 -24
l-193 -4 0 167 0 166 193 -3 c168 -3 197 -5 231 -23z"/>
<path d="M4974 2611 c-62 -15 -124 -54 -174 -108 l-50 -55 0 71 0 71 -135 0
-135 0 0 -485 0 -485 135 0 135 0 0 253 c0 283 7 331 62 393 17 19 54 47 82
62 43 22 64 26 134 27 l82 0 0 126 c0 106 -3 128 -16 133 -20 8 -80 6 -120 -3z"/>
<path d="M5545 2608 c-165 -31 -298 -156 -349 -328 -19 -64 -22 -212 -6 -285
29 -128 123 -246 243 -304 160 -78 360 -56 476 53 l33 31 -4 -85 c-5 -112 -31
-161 -106 -203 -46 -25 -67 -31 -146 -35 -131 -7 -225 22 -328 101 l-44 34
-46 -103 -45 -102 43 -32 c110 -79 246 -120 401 -120 283 0 460 119 524 355
21 76 23 106 27 543 l4 462 -136 0 -136 0 0 -51 0 -51 -35 31 c-96 84 -229
116 -370 89z m263 -247 c50 -26 107 -87 128 -136 22 -52 22 -149 0 -200 -36
-85 -119 -144 -215 -152 -113 -10 -200 37 -247 134 -74 149 -4 326 147 372 47
14 142 5 187 -18z"/>
<path d="M6770 2613 c-103 -17 -216 -79 -284 -154 -178 -198 -167 -546 24
-722 108 -100 210 -137 375 -137 179 0 315 56 409 167 l26 31 -101 65 -100 65
-47 -47 c-57 -57 -114 -76 -206 -69 -110 9 -191 72 -221 171 l-14 47 361 0
361 0 -6 108 c-6 119 -28 195 -78 273 -99 154 -299 235 -499 202z m178 -228
c49 -21 81 -52 103 -100 36 -79 46 -75 -201 -75 l-219 0 15 42 c18 53 66 104
119 129 49 23 133 24 183 4z"/>
<path d="M7980 2606 c-63 -16 -111 -48 -165 -108 l-45 -50 0 71 0 71 -130 0
-130 0 0 -485 0 -485 129 0 129 0 4 268 3 267 30 60 c52 103 156 157 277 141
l48 -7 0 130 c0 143 1 142 -68 140 -20 0 -57 -6 -82 -13z"/>
<path d="M3320 2265 c0 -198 4 -345 11 -377 43 -204 212 -320 419 -287 85 13
138 38 194 89 l46 43 0 -57 0 -56 135 0 135 0 0 485 0 485 -135 0 -135 0 0
-289 c0 -189 -4 -300 -11 -322 -48 -143 -238 -196 -335 -94 -49 52 -54 93 -54
414 l0 291 -135 0 -135 0 0 -325z"/>
</g>
</svg>
