<?xml version="1.0" standalone="no"?>
<!DOCTYPE svg PUBLIC "-//W3C//DTD SVG 20010904//EN"
 "http://www.w3.org/TR/2001/REC-SVG-20010904/DTD/svg10.dtd">
<svg version="1.0" xmlns="http://www.w3.org/2000/svg"
 width="1024.000000pt" height="1024.000000pt" viewBox="0 0 1024.000000 1024.000000"
 preserveAspectRatio="xMidYMid meet">

<g transform="translate(0.000000,1024.000000) scale(0.100000,-0.100000)"
fill="#000000" stroke="none">
<path d="M2230 6679 c-546 -63 -972 -360 -1071 -747 -35 -138 -22 -213 50
-282 35 -35 59 -48 99 -58 41 -9 318 -12 1141 -12 1223 0 1155 -4 1235 73 43
41 76 117 76 171 -1 51 -33 167 -65 235 -138 291 -455 510 -852 590 -187 38
-438 50 -613 30z m555 -183 c109 -21 271 -74 357 -117 206 -104 377 -283 428
-445 28 -93 27 -139 -6 -169 l-27 -25 -1091 0 c-842 1 -1095 3 -1107 13 -33
25 -41 55 -30 108 44 204 210 398 440 514 138 68 304 116 491 139 86 10 458
-2 545 -18z"/>
<path d="M7570 6259 c-275 -54 -440 -400 -316 -665 49 -103 159 -205 264 -244
122 -46 296 -36 392 23 47 29 130 107 130 123 0 13 -99 104 -114 104 -5 0 -27
-15 -50 -34 -70 -56 -104 -70 -181 -70 -84 0 -140 23 -202 85 -62 60 -87 119
-87 204 0 98 26 168 84 225 105 106 264 105 385 -1 l35 -31 37 30 c21 17 51
44 67 61 l30 31 -44 45 c-102 103 -264 147 -430 114z"/>
<path d="M8593 6251 c-101 -35 -155 -96 -174 -196 -20 -108 25 -207 117 -261
26 -15 95 -44 154 -65 120 -41 125 -43 157 -72 49 -44 34 -120 -31 -151 -85
-40 -204 -8 -253 69 l-27 44 -78 -41 c-43 -22 -78 -44 -78 -50 0 -24 44 -90
81 -122 72 -61 136 -80 269 -81 100 0 122 3 167 24 169 76 223 292 107 421
-50 55 -83 73 -209 115 -166 56 -195 76 -195 132 0 41 26 68 77 82 74 20 153
-15 186 -82 l18 -36 57 25 c31 14 67 30 80 35 29 11 28 26 -6 80 -64 101 -159
149 -290 149 -47 -1 -97 -8 -129 -19z"/>
<path d="M4370 5800 l0 -450 90 0 90 0 0 292 0 293 76 -140 c68 -125 181 -323
191 -334 2 -3 10 2 17 10 15 15 176 300 233 409 l33 65 0 -297 0 -298 90 0 90
0 0 450 0 450 -99 0 -99 0 -110 -197 c-61 -109 -119 -216 -130 -237 l-19 -39
-40 74 c-21 41 -79 147 -129 236 l-89 162 -97 1 -98 0 0 -450z"/>
<path d="M5750 6225 c-18 -47 -300 -866 -300 -870 0 -3 42 -5 94 -5 l95 0 27
85 28 85 172 0 172 0 28 -85 28 -85 99 0 c91 0 98 2 92 18 -4 9 -43 116 -85
237 -43 121 -111 315 -152 430 l-74 210 -107 3 -107 3 -10 -26z m174 -378 l55
-157 -110 0 c-60 0 -109 3 -109 7 0 5 21 71 46 148 25 77 48 146 50 154 2 8 6
12 9 10 2 -3 29 -75 59 -162z"/>
<path d="M6440 5801 l0 -451 90 0 90 0 0 155 0 155 68 0 67 0 33 -63 c19 -34
57 -104 85 -154 l52 -93 103 0 c56 0 102 2 102 4 0 2 -43 78 -95 168 -82 142
-92 164 -78 173 40 24 107 93 126 130 18 32 22 57 22 130 0 78 -4 97 -27 140
-31 60 -67 95 -128 127 -43 22 -56 23 -277 26 l-233 3 0 -450z m446 237 c27
-30 34 -46 34 -78 0 -99 -59 -139 -207 -140 l-93 0 0 131 0 131 116 -4 116 -3
34 -37z"/>
<path d="M8160 6208 c0 -24 -7 -74 -16 -113 -8 -38 -17 -82 -21 -97 -5 -27 -5
-28 41 -28 26 0 56 5 67 10 44 24 99 152 99 232 l0 38 -85 0 -85 0 0 -42z"/>
<path d="M6620 5000 c-111 -24 -218 -109 -265 -213 -85 -187 3 -416 193 -505
50 -24 70 -27 157 -27 87 0 107 3 156 27 32 14 76 45 99 68 63 63 83 117 88
233 l4 97 -186 0 -186 0 0 -70 0 -70 110 0 c70 0 110 -4 110 -10 0 -22 -30
-68 -60 -93 -77 -65 -193 -60 -271 10 -106 96 -117 246 -26 350 43 48 83 66
148 66 63 -1 101 -17 146 -63 l31 -32 56 33 c31 19 56 41 56 49 0 30 -61 89
-123 119 -70 34 -162 46 -237 31z"/>
<path d="M4355 4923 c-3 -38 -5 -202 -3 -366 l3 -299 180 4 c161 3 184 5 220
25 50 27 80 58 100 105 32 78 13 165 -48 214 l-35 28 33 39 c38 44 50 95 41
162 -9 58 -42 104 -95 132 -41 21 -55 23 -217 23 l-172 0 -7 -67z m326 -92
c27 -33 25 -86 -6 -116 -21 -22 -33 -25 -100 -25 l-75 0 0 86 0 86 81 -4 c70
-3 83 -6 100 -27z m-15 -271 c15 -6 33 -18 40 -28 19 -25 17 -76 -5 -103 -17
-21 -29 -24 -110 -27 l-91 -4 0 86 0 86 69 0 c38 0 82 -5 97 -10z"/>
<path d="M4982 4723 c3 -248 5 -271 24 -314 95 -205 412 -213 514 -13 25 48
25 54 28 322 l3 272 -76 0 -75 0 0 -245 c0 -267 -5 -296 -54 -328 -42 -28 -82
-31 -132 -12 -37 14 -50 25 -65 59 -16 36 -19 68 -19 284 l0 242 -76 0 -75 0
3 -267z"/>
<path d="M5700 4625 l0 -365 75 0 75 0 0 131 0 130 42 -3 42 -3 71 -125 71
-125 88 -3 c48 -1 86 1 83 5 -2 4 -39 68 -82 141 -43 73 -76 134 -74 135 2 1
22 11 43 22 61 31 90 84 94 171 5 86 -9 133 -51 181 -56 64 -94 73 -298 73
l-179 0 0 -365z m344 206 c34 -32 42 -80 22 -120 -23 -44 -63 -61 -146 -61
l-70 0 0 106 0 106 84 -3 c73 -4 88 -7 110 -28z"/>
<path d="M7180 4738 c0 -141 5 -269 10 -290 19 -68 70 -130 134 -163 53 -27
69 -30 145 -30 132 1 213 48 264 155 21 42 22 62 25 313 l3 267 -75 0 -76 0 0
-241 c0 -266 -4 -289 -62 -330 -64 -46 -150 -28 -195 40 -22 33 -23 41 -23
282 l0 249 -75 0 -75 0 0 -252z"/>
<path d="M7910 4625 l0 -365 225 0 225 0 0 70 0 70 -150 0 -150 0 0 80 0 80
125 0 125 0 0 70 0 70 -125 0 -125 0 0 80 0 80 150 0 150 0 0 65 0 65 -225 0
-225 0 0 -365z"/>
<path d="M8510 4625 l0 -365 75 0 75 0 0 130 0 130 43 0 42 -1 71 -127 71
-127 87 -3 87 -3 -27 48 c-16 26 -52 88 -81 138 -58 97 -60 105 -38 105 9 0
35 20 59 44 55 54 73 123 57 212 -14 76 -43 119 -105 154 l-51 30 -182 0 -183
0 0 -365z m315 220 c61 -30 73 -104 26 -157 -28 -31 -33 -33 -110 -36 l-81 -4
0 106 0 106 66 0 c39 0 79 -6 99 -15z"/>
<path d="M2385 4920 c-1114 -5 -1141 -5 -1173 -25 -107 -65 -122 -242 -35
-424 41 -86 145 -197 233 -248 69 -41 177 -79 261 -92 40 -7 330 -11 770 -11
764 0 812 3 940 55 141 57 277 177 337 298 117 231 57 431 -133 447 -33 3
-573 3 -1200 0z m1215 -177 c32 -40 23 -111 -26 -203 -65 -125 -183 -210 -342
-247 -71 -16 -137 -18 -792 -18 -653 0 -721 2 -784 18 -93 24 -187 71 -247
125 -94 85 -161 280 -114 332 18 20 34 20 1151 20 l1133 0 21 -27z"/>
</g>
</svg>
